<?xml version="1.0" encoding="utf-8"?>
<svg xmlns="http://www.w3.org/2000/svg" height="48" width="48" viewBox="0 0 48 48">
  <g>
    <path id="path1" transform=" translate(11,21.0322467998631) scale(0.0746717300441947,0.0746717300441947)  " fill="#435063" d="M27.4559993743896,36.4799995422363L23.7959995269775,36.8160018920898 20.496000289917,37.8240013122559 17.5559997558594,39.5040016174316 14.975998878479,41.8560028076172 13.0019989013672,44.568000793457 11.5919990539551,47.6160011291504 10.7459993362427,51.0000038146973 10.46399974823,54.7200012207031 10.7459993362427,58.439998626709 11.5919990539551,61.8240013122559 13.0019989013672,64.8720016479492 14.975998878479,67.5839996337891 17.5559997558594,69.9359970092773 20.496000289917,71.6159973144531 23.7959995269775,72.6240005493164 27.4559993743896,72.9599990844727 31.1399993896484,72.6240005493164 34.4159965515137,71.6159973144531 37.2839965820313,69.9359970092773 39.7439994812012,67.5839996337891 41.6339988708496,64.8720016479492 42.9839973449707,61.8240013122559 43.7939987182617,58.439998626709 44.0639991760254,54.7200012207031 43.7939987182617,51.0000038146973 42.9839973449707,47.6160011291504 41.6339988708496,44.568000793457 39.7439994812012,41.8560028076172 37.2839965820313,39.5040016174316 34.4159965515137,37.8240013122559 31.1399993896484,36.8160018920898 27.4559993743896,36.4799995422363z M43.6800003051758,11.5200042724609L50.8800010681152,11.5200042724609 50.8800010681152,78.7200012207031 43.6800003051758,78.7200012207031 43.6800003051758,71.0400009155273 40.4459991455078,74.7360000610352 36.5040016174316,77.3759994506836 31.8540000915527,78.9599990844727 26.496000289917,79.4879989624023 21.5520000457764,79.0380020141602 17.0879993438721,77.6879959106445 13.1040000915527,75.4379959106445 9.60000038146973,72.2880020141602 6.82800054550171,68.5260009765625 4.84800004959106,64.3440017700195 3.66000008583069,59.742000579834 3.26399993896484,54.7200012207031 3.66000008583069,49.6980018615723 4.84800004959106,45.0960006713867 6.82800054550171,40.9140014648438 9.60000038146973,37.1520004272461 13.1339998245239,34.0020027160645 17.2080001831055,31.7520027160645 21.82200050354,30.4020023345947 26.9759998321533,29.9519996643066 32.0880012512207,30.4860019683838 36.576000213623,32.0880012512207 40.4400024414063,34.7580032348633 43.6800003051758,38.4960021972656 43.6800003051758,11.5200042724609z M62.2080001831055,68.9280014038086L71.5199966430664,68.9280014038086 71.5199966430664,78.7200012207031 62.2080001831055,78.7200012207031 62.2080001831055,68.9280014038086z M77.4706649780273,15.1679983139038L85.0546646118164,15.1679983139038 101.374664306641,68.5439987182617 118.462661743164,15.1679983139038 126.71866607666,15.1679983139038 143.806671142578,68.5439987182617 160.126678466797,15.1679983139038 167.710662841797,15.1679983139038 147.934661865234,78.7200012207031 139.774658203125,78.7200012207031 122.590667724609,25.3440017700195 105.406669616699,78.7200012207031 97.2466659545898,78.7200012207031 77.4706649780273,15.1679983139038z M196.029327392578,36.4799995422363L192.369323730469,36.8160018920898 189.0693359375,37.8240013122559 186.129333496094,39.5040016174316 183.549331665039,41.8560028076172 181.575332641602,44.568000793457 180.165344238281,47.6160011291504 179.3193359375,51.0000038146973 179.037338256836,54.7200012207031 179.3193359375,58.439998626709 180.165344238281,61.8240013122559 181.575332641602,64.8720016479492 183.549331665039,67.5839996337891 186.129333496094,69.9359970092773 189.0693359375,71.6159973144531 192.369323730469,72.6240005493164 196.029327392578,72.9599990844727 199.713333129883,72.6240005493164 202.989334106445,71.6159973144531 205.857330322266,69.9359970092773 208.317337036133,67.5839996337891 210.207336425781,64.8720016479492 211.557327270508,61.8240013122559 212.367324829102,58.439998626709 212.637329101563,54.7200012207031 212.367324829102,51.0000038146973 211.557327270508,47.6160011291504 210.207336425781,44.568000793457 208.317337036133,41.8560028076172 205.857330322266,39.5040016174316 202.989334106445,37.8240013122559 199.713333129883,36.8160018920898 196.029327392578,36.4799995422363z M195.549331665039,29.9519996643066L200.661331176758,30.4860019683838 205.149337768555,32.0880012512207 209.013336181641,34.7580032348633 212.253326416016,38.4960021972656 212.253326416016,30.7200012207031 219.453338623047,30.7200012207031 219.453338623047,78.7200012207031 212.253326416016,78.7200012207031 212.253326416016,71.0400009155273 209.019332885742,74.7360000610352 205.077331542969,77.3759994506836 200.427337646484,78.9599990844727 195.0693359375,79.4879989624023 190.125335693359,79.0380020141602 185.661331176758,77.6879959106445 181.677337646484,75.4379959106445 178.17333984375,72.2880020141602 175.401336669922,68.5260009765625 173.421340942383,64.3440017700195 172.233337402344,59.742000579834 171.837341308594,54.7200012207031 172.233337402344,49.6980018615723 173.421340942383,45.0960006713867 175.401336669922,40.9140014648438 178.17333984375,37.1520004272461 181.707336425781,34.0020027160645 185.781341552734,31.7520027160645 190.39533996582,30.4020023345947 195.549331665039,29.9519996643066z M231.933334350586,11.5200042724609L239.133331298828,11.5200042724609 239.133331298828,78.7200012207031 231.933334350586,78.7200012207031 231.933334350586,11.5200042724609z M251.613342285156,11.5200042724609L258.813323974609,11.5200042724609 258.813323974609,78.7200012207031 251.613342285156,78.7200012207031 251.613342285156,11.5200042724609z M292.125335693359,36.4799995422363L288.945343017578,36.7379989624023 286.029357910156,37.5120010375977 283.377349853516,38.802001953125 280.989349365234,40.6080017089844 279.081359863281,42.726001739502 277.581359863281,45.1440010070801 276.489349365234,47.862003326416 275.805358886719,50.8800010681152 308.445343017578,50.8800010681152 307.761352539063,47.862003326416 306.669342041016,45.1440010070801 305.169342041016,42.726001739502 303.261352539063,40.6080017089844 300.873352050781,38.802001953125 298.221343994141,37.5120010375977 295.305358886719,36.7379989624023 292.125335693359,36.4799995422363z M292.125335693359,29.9519996643066L297.249328613281,30.4020023345947 301.869323730469,31.7520027160645 305.9853515625,34.0020027160645 309.597351074219,37.1520004272461 312.369354248047,40.8420028686523 314.349365234375,45 315.537353515625,49.6259994506836 315.933349609375,54.7200012207031 315.933349609375,57.5999984741211 275.709350585938,57.5999984741211 276.327362060547,60.7679977416992 277.413360595703,63.6479988098145 278.967346191406,66.2399978637695 280.989349365234,68.5439987182617 283.449340820313,70.4759979248047 286.221343994141,71.8560028076172 289.305328369141,72.6839981079102 292.701354980469,72.9599990844727 297.207336425781,72.4560012817383 301.029357910156,70.9440002441406 304.167358398438,68.4240036010742 306.621337890625,64.8960037231445 314.493347167969,64.8960037231445 311.265350341797,70.8000030517578 306.573333740234,75.4560012817383 303.666320800781,77.2200012207031 300.369323730469,78.4800033569336 296.682342529297,79.2360000610352 292.605346679688,79.4879989624023 287.433349609375,79.0380020141602 282.765350341797,77.6879959106445 278.601348876953,75.4379959106445 274.941345214844,72.2880020141602 272.043334960938,68.5619964599609 269.973327636719,64.3919982910156 268.731353759766,59.7779998779297 268.317352294922,54.7200012207031 268.713348388672,49.6259994506836 269.9013671875,45 271.88134765625,40.8420028686523 274.653350830078,37.1520004272461 278.265350341797,34.0020027160645 282.38134765625,31.7520027160645 287.001342773438,30.4020023345947 292.125335693359,29.9519996643066z M329.95068359375,13.536003112793L337.150665283203,13.536003112793 337.150665283203,30.7200012207031 348.190673828125,30.7200012207031 348.190673828125,37.0559997558594 337.150665283203,37.0559997558594 337.150665283203,78.7200012207031 329.95068359375,78.7200012207031 329.95068359375,37.0559997558594 320.158660888672,37.0559997558594 320.158660888672,30.7200012207031 329.95068359375,30.7200012207031 329.95068359375,13.536003112793z" />
  </g>
</svg>

