<?xml version="1.0" encoding="iso-8859-1"?>
<!-- Generator: Adobe Illustrator 19.0.0, SVG Export Plug-In . SVG Version: 6.00 Build 0)  -->
<svg version="1.1" id="Capa_1" 
	xmlns="http://www.w3.org/2000/svg" 
	xmlns:xlink="http://www.w3.org/1999/xlink" x="0px" y="0px" width="16" height="16" viewBox="0 0 512 512" style="enable-background:new 0 0 512 512;" xml:space="preserve">
	<g>
		<g>
			<path fill="#badeff" d="M501.856,267.118c-11.311-38.168-31.9-73.311-59.634-101.848l8.224-8.224c5.768-5.768,5.768-15.12,0-20.888
			l-74.602-74.602c-5.767-5.768-15.12-5.768-20.888,0l-8.224,8.224c-28.538-27.735-63.681-48.324-101.849-59.635
			c-39.279-11.642-81.225-13.299-121.3-4.791c-6.758,1.435-11.619,7.361-11.703,14.27c-0.084,6.907,4.632,12.95,11.352,14.548
			l14.46,3.437c39.139,9.304,74.863,29.257,103.31,57.704l40.098,40.098l-4.476,4.476c-5.768,5.768-5.768,15.12,0,20.888
			l74.602,74.602c5.767,5.768,15.12,5.768,20.888,0l4.476-4.476l40.098,40.098c28.446,28.447,48.4,64.17,57.704,103.308l3.437,14.46
			c1.583,6.662,7.536,11.354,14.367,11.354c0.061,0,0.12,0,0.181-0.001c6.907-0.084,12.835-4.944,14.269-11.702
			C515.153,348.342,513.497,306.397,501.856,267.118z"/>
		</g>
	</g>
	<g>
		<g>
			<path fill="#badeff" d="M413.56,380.301c0-23.414-19.049-42.464-42.464-42.464h-1.846v-18.462c0-8.157-6.613-14.77-14.77-14.77
			c-8.157,0-14.77,6.613-14.77,14.77v18.462h-29.54c-8.157,0-14.77,6.613-14.77,14.77v110.775c0,8.157,6.613,14.77,14.77,14.77
			h29.54v18.462c0,8.157,6.613,14.77,14.77,14.77c8.157,0,14.77-6.613,14.77-14.77v-18.462h1.846
			c23.414,0,42.464-19.049,42.464-42.464c0-10.575-3.895-20.253-10.313-27.694C409.666,400.554,413.56,390.876,413.56,380.301z
			 M371.096,448.612H324.94v-25.847h46.156c7.126,0,12.924,5.798,12.924,12.924C384.02,442.815,378.222,448.612,371.096,448.612z
			 M371.096,393.225H324.94v-25.847h46.156c7.126,0,12.924,5.798,12.924,12.924C384.02,387.427,378.222,393.225,371.096,393.225z"/>
		</g>
	</g>
	<g>
		<g>
			<path fill="#badeff" d="M260.211,186.14L4.326,442.025c-5.768,5.768-5.768,15.12,0,20.888l44.761,44.761c2.884,2.884,6.664,4.327,10.443,4.327
			c3.779,0,7.56-1.441,10.443-4.327l255.885-255.885L260.211,186.14z"/>
		</g>
	</g>
	<g>
	</g>
	<g>
	</g>
	<g>
	</g>
	<g>
	</g>
	<g>
	</g>
	<g>
	</g>
	<g>
	</g>
	<g>
	</g>
	<g>
	</g>
	<g>
	</g>
	<g>
	</g>
	<g>
	</g>
	<g>
	</g>
	<g>
	</g>
	<g>
	</g>
</svg>
