<?xml version="1.0" encoding="iso-8859-1"?>
<!-- Generator: Adobe Illustrator 19.0.0, SVG Export Plug-In . SVG Version: 6.00 Build 0)  -->
<svg version="1.1" id="Layer_1" xmlns="http://www.w3.org/2000/svg" xmlns:xlink="http://www.w3.org/1999/xlink" x="0px" y="0px"
	 viewBox="0 0 511.998 511.998" width="10" height="10" style="enable-background:new 0 0 511.998 511.998;" xml:space="preserve">
<path style="fill:#dd0b51;" d="M480.279,287.716c17.517,0,31.718-14.201,31.718-31.718V31.729c0-1.051-0.055-2.1-0.159-3.144
	c-0.042-0.448-0.129-0.884-0.19-1.326c-0.082-0.581-0.152-1.165-0.266-1.742c-0.104-0.518-0.245-1.017-0.374-1.527
	c-0.125-0.495-0.23-0.994-0.381-1.484c-0.152-0.501-0.34-0.985-0.516-1.476c-0.173-0.484-0.334-0.975-0.533-1.453
	c-0.19-0.459-0.412-0.899-0.624-1.347c-0.23-0.491-0.45-0.985-0.706-1.465c-0.23-0.429-0.491-0.835-0.742-1.252
	c-0.281-0.472-0.548-0.949-0.854-1.408c-0.309-0.461-0.651-0.892-0.983-1.336c-0.288-0.385-0.556-0.78-0.863-1.155
	c-0.639-0.776-1.311-1.522-2.021-2.235c-0.027-0.03-0.049-0.059-0.078-0.089c-0.034-0.034-0.072-0.061-0.108-0.095
	c-0.706-0.702-1.446-1.37-2.214-2.002c-0.379-0.309-0.776-0.579-1.163-0.869c-0.44-0.33-0.871-0.67-1.33-0.977
	c-0.459-0.307-0.935-0.573-1.406-0.854c-0.417-0.25-0.827-0.512-1.256-0.742c-0.478-0.256-0.968-0.472-1.457-0.702
	c-0.45-0.214-0.892-0.438-1.355-0.63c-0.474-0.195-0.956-0.353-1.436-0.524c-0.497-0.18-0.99-0.368-1.497-0.524
	c-0.476-0.144-0.962-0.25-1.444-0.37c-0.52-0.131-1.034-0.277-1.567-0.383c-0.554-0.11-1.114-0.173-1.673-0.256
	c-0.465-0.066-0.922-0.154-1.396-0.201c-1.023-0.101-2.053-0.154-3.081-0.156c-0.017,0-0.034-0.002-0.047-0.002H256.002
	c-17.517,0-31.718,14.201-31.718,31.718s14.201,31.718,31.718,31.718h147.706L9.291,457.853c-12.387,12.387-12.387,32.469,0,44.856
	c6.194,6.194,14.311,9.289,22.429,9.289s16.236-3.096,22.427-9.291l394.414-394.414v147.705
	C448.561,273.515,462.762,287.716,480.279,287.716z"/>
<g>
</g>
<g>
</g>
<g>
</g>
<g>
</g>
<g>
</g>
<g>
</g>
<g>
</g>
<g>
</g>
<g>
</g>
<g>
</g>
<g>
</g>
<g>
</g>
<g>
</g>
<g>
</g>
<g>
</g>
</svg>
