<?xml version="1.0" encoding="iso-8859-1"?>
<!-- Generator: Adobe Illustrator 19.0.0, SVG Export Plug-In . SVG Version: 6.00 Build 0)  -->
<svg version="1.1" id="Layer_1" 
    xmlns="http://www.w3.org/2000/svg" width="25" height="25" 
    xmlns:xlink="http://www.w3.org/1999/xlink" x="0px" y="0px" viewBox="0 0 512 512" style="enable-background:new 0 0 512 512;" xml:space="preserve">
    <rect x="69.587" y="69.587" style="fill:#5190E3;" width="33.391" height="33.391"/>
    <g>
        <path style="fill:#3A64AB;" d="M339.432,0v69.589h-52.029v33.391h52.029v36.197h-52.029v33.391h52.029h15.655h53.698v50.989h33.391
		v-50.989H512V0H339.432z M478.609,139.177H372.823V33.391h105.786V139.177z"/>
        <rect x="409.021" y="69.587" style="fill:#3A64AB;" width="33.391" height="33.391"/>
    </g>
    <rect x="69.587" y="409.021" style="fill:#5190E3;" width="33.391" height="33.391"/>
    <rect x="409.021" y="409.021" style="fill:#3A64AB;" width="33.391" height="33.391"/>
    <g>
        <path style="fill:#5190E3;" d="M69.589,223.557h33.391v-50.989h69.589V102.98h50.989V69.589h-50.989V0H0v172.568h69.589V223.557z
		 M33.391,33.391h105.786v105.786H33.391V33.391z"/>
        <rect x="224.078" y="306.109" style="fill:#5190E3;" width="63.844" height="33.391"/>
    </g>
    <rect x="256" y="306.109" style="fill:#3A64AB;" width="31.923" height="33.391"/>
    <path style="fill:#5190E3;" d="M206.861,409.02h-34.293v-69.589H102.98v-33.771h52.893v-33.391H69.589v67.162H0V512h172.568v-69.589
	h67.684v-86.284h-33.391V409.02z M139.177,478.609H33.391V372.823h105.786V478.609z"/>
    <path style="fill:#3A64AB;" d="M442.177,288.965h-33.391v50.467h-69.354v69.589h-68.725v86.284h33.391v-52.893h35.334V512H512
	V339.432h-69.823V288.965z M478.609,478.609H372.823V372.823h105.786V478.609z"/>
    <polygon style="fill:#5190E3;" points="206.861,206.861 155.873,206.861 155.873,240.253 240.253,240.253 240.253,155.873 
	206.861,155.873 "/>
    <polygon style="fill:#3A64AB;" points="304.098,232.732 355.086,232.732 355.086,199.341 270.707,199.341 270.707,283.72 
	304.098,283.72 "/>
    <g>
    </g>
    <g>
    </g>
    <g>
    </g>
    <g>
    </g>
    <g>
    </g>
    <g>
    </g>
    <g>
    </g>
    <g>
    </g>
    <g>
    </g>
    <g>
    </g>
    <g>
    </g>
    <g>
    </g>
    <g>
    </g>
    <g>
    </g>
    <g>
    </g>
</svg>
