<?xml version="1.0" encoding="iso-8859-1"?>
<!-- Generator: Adobe Illustrator 17.1.0, SVG Export Plug-In . SVG Version: 6.00 Build 0)  -->
<!DOCTYPE svg PUBLIC "-//W3C//DTD SVG 1.1//EN" "http://www.w3.org/Graphics/SVG/1.1/DTD/svg11.dtd">
<svg version="1.1" id="Capa_1" xmlns="http://www.w3.org/2000/svg" xmlns:xlink="http://www.w3.org/1999/xlink" x="0px" y="0px"
width="28" height="28"
	 viewBox="0 0 511.994 511.994" style="enable-background:new 0 0 511.994 511.994;" xml:space="preserve">
<g>
	<path fill="white" d="M511.986,56.391c0.003-0.061,0.005-0.121,0.007-0.182c0.002-0.07-0.002-0.139-0.002-0.209c0-0.13,0.002-0.26-0.004-0.389
		c-0.005-0.11-0.017-0.219-0.027-0.328c-0.001-0.014-0.002-0.029-0.004-0.043c-0.006-0.063-0.008-0.127-0.016-0.19
		c-0.008-0.071-0.018-0.141-0.028-0.211c-0.015-0.103-0.037-0.205-0.056-0.308c-0.026-0.143-0.051-0.286-0.086-0.428
		c-0.004-0.015-0.007-0.03-0.011-0.045c-0.025-0.1-0.058-0.198-0.087-0.298c-0.04-0.139-0.079-0.277-0.127-0.414
		c-0.023-0.066-0.049-0.13-0.073-0.195c-0.023-0.06-0.049-0.117-0.073-0.177c0-0.001-0.001-0.003-0.002-0.004
		c-0.046-0.113-0.089-0.226-0.14-0.337c-0.057-0.124-0.123-0.243-0.186-0.364c-0.031-0.06-0.061-0.12-0.094-0.179
		c-0.028-0.05-0.053-0.1-0.082-0.149c-0.099-0.167-0.209-0.33-0.32-0.491c-0.036-0.052-0.066-0.107-0.103-0.159
		c-0.002-0.003-0.004-0.005-0.006-0.008c-0.005-0.007-0.011-0.014-0.016-0.021c-0.099-0.135-0.21-0.264-0.319-0.394
		c-0.068-0.081-0.132-0.167-0.202-0.244c-0.031-0.034-0.065-0.067-0.097-0.102c-0.05-0.054-0.105-0.104-0.157-0.156
		c-0.11-0.111-0.218-0.224-0.333-0.328c-0.007-0.007-0.014-0.014-0.021-0.021c-0.047-0.042-0.097-0.076-0.145-0.116
		c-0.022-0.019-0.045-0.037-0.068-0.056c-0.034-0.029-0.063-0.062-0.098-0.09c-0.023-0.018-0.048-0.031-0.071-0.05
		c-0.075-0.059-0.148-0.119-0.224-0.175c-0.074-0.054-0.152-0.101-0.227-0.153c-0.14-0.095-0.28-0.191-0.425-0.276
		c-0.106-0.063-0.216-0.117-0.324-0.174c-0.118-0.063-0.235-0.127-0.356-0.184c-0.05-0.023-0.1-0.047-0.151-0.069
		c-0.032-0.014-0.064-0.024-0.096-0.038c-0.052-0.022-0.104-0.041-0.156-0.062c-0.102-0.041-0.203-0.084-0.306-0.121
		c-0.111-0.04-0.223-0.072-0.335-0.106c-0.065-0.02-0.129-0.04-0.195-0.058c-0.069-0.019-0.138-0.04-0.208-0.058
		c-0.148-0.037-0.297-0.064-0.447-0.093c-0.084-0.016-0.167-0.038-0.252-0.051c-0.022-0.003-0.045-0.004-0.067-0.008
		c-0.138-0.02-0.277-0.032-0.415-0.045c-0.119-0.011-0.237-0.024-0.356-0.031c-0.054-0.003-0.107-0.006-0.161-0.007
		c-0.063-0.002-0.126,0.002-0.189,0.002c-0.009,0-0.018,0-0.027,0c-0.134,0-0.268-0.002-0.402,0.004
		c-0.107,0.005-0.214,0.017-0.321,0.026c-0.071,0.006-0.142,0.01-0.213,0.018c-0.08,0.009-0.159,0.018-0.238,0.03
		c-0.106,0.015-0.211,0.038-0.317,0.057c-0.132,0.025-0.265,0.046-0.396,0.077c-0.015,0.004-0.03,0.009-0.046,0.013
		c-0.111,0.027-0.221,0.062-0.331,0.094c-0.135,0.039-0.27,0.077-0.403,0.124c-0.065,0.022-0.128,0.048-0.192,0.072
		c-0.017,0.006-0.034,0.01-0.051,0.016l-496,192c-3.084,1.194-5.116,4.162-5.112,7.469c0.003,3.307,2.042,6.271,5.128,7.458
		l147.877,56.876l47.385,146.125c0.007,0.021,0.018,0.039,0.025,0.059c0.014,0.043,0.024,0.087,0.039,0.13
		c0.112,0.319,0.251,0.629,0.404,0.934c0.032,0.063,0.065,0.124,0.098,0.186c0.149,0.279,0.313,0.551,0.497,0.813
		c0.024,0.035,0.045,0.072,0.07,0.106c0.012,0.017,0.024,0.034,0.037,0.051c0.014,0.018,0.029,0.034,0.043,0.053
		c0.06,0.08,0.127,0.157,0.191,0.235c0.076,0.094,0.148,0.19,0.228,0.281c0.062,0.069,0.13,0.133,0.195,0.2
		c0.03,0.031,0.06,0.062,0.09,0.093c0.046,0.046,0.089,0.095,0.136,0.14c0.049,0.047,0.096,0.095,0.146,0.141
		c0.048,0.044,0.1,0.084,0.15,0.126c0.154,0.135,0.31,0.266,0.474,0.39c0.01,0.008,0.019,0.016,0.029,0.024
		c0.015,0.011,0.033,0.019,0.048,0.03c0.05,0.036,0.101,0.069,0.151,0.104c0.257,0.179,0.527,0.344,0.808,0.493
		c0.046,0.024,0.089,0.055,0.135,0.078c0.015,0.008,0.03,0.013,0.045,0.021c0.264,0.131,0.535,0.252,0.819,0.356
		c0.06,0.022,0.121,0.037,0.181,0.057c0.079,0.027,0.158,0.051,0.238,0.075c0.344,0.105,0.69,0.19,1.037,0.248
		c0.016,0.003,0.031,0.008,0.047,0.011c0.033,0.005,0.066,0.004,0.099,0.009c0.383,0.056,0.767,0.09,1.147,0.09c0,0,0.001,0,0.001,0
		h0c0,0,0,0,0.001,0c0.031,0,0.061-0.007,0.092-0.007c0.329-0.004,0.657-0.031,0.983-0.075c0.049-0.007,0.099-0.006,0.147-0.013
		c0.07-0.011,0.14-0.036,0.21-0.049c0.253-0.046,0.503-0.104,0.751-0.175c0.081-0.023,0.163-0.038,0.243-0.063
		c0.014-0.004,0.028-0.006,0.042-0.01c0.038-0.012,0.074-0.03,0.112-0.043c0.119-0.04,0.235-0.088,0.352-0.134
		c0.156-0.062,0.311-0.125,0.461-0.195c0.023-0.01,0.046-0.018,0.069-0.029c0.013-0.007,0.028-0.011,0.041-0.017
		c0.075-0.036,0.146-0.08,0.22-0.119c0.155-0.081,0.306-0.167,0.454-0.257c0.098-0.06,0.195-0.12,0.29-0.184
		c0.001-0.001,0.002-0.001,0.003-0.002c0.028-0.019,0.057-0.035,0.085-0.054c0.133-0.092,0.259-0.193,0.386-0.292
		c0.074-0.058,0.149-0.112,0.221-0.173c0.079-0.067,0.155-0.138,0.231-0.208c0.059-0.053,0.115-0.109,0.173-0.165
		c0.246-0.239,0.48-0.489,0.693-0.756c0.018-0.022,0.037-0.043,0.055-0.066c0.023-0.03,0.043-0.063,0.065-0.093
		c0.017-0.022,0.037-0.041,0.054-0.064l58.457-78.995c2.628-3.552,1.88-8.561-1.672-11.189c-3.551-2.628-8.562-1.879-11.189,1.672
		l-25.398,34.322l20.186-55.106l191.072,72.521c0.918,0.348,1.88,0.521,2.838,0.521c1.399,0,2.792-0.367,4.031-1.089
		c2.086-1.217,3.511-3.311,3.877-5.698l55.275-360.502c0.003-0.017,0.002-0.034,0.004-0.051c0.019-0.133,0.03-0.266,0.043-0.399
		C511.967,56.634,511.98,56.513,511.986,56.391z M449.557,85.646L221.052,251.603c-3.575,2.596-4.368,7.599-1.772,11.174
		c1.565,2.155,4.005,3.299,6.479,3.299c1.63,0,3.275-0.497,4.695-1.528l218.284-158.534L244.445,335.408
		c-0.793,0.782-1.44,1.738-1.861,2.848c-0.072,0.188-0.127,0.379-0.184,0.569l-33.94,92.653l-41.413-127.707
		c-0.773-2.384-2.56-4.154-4.728-4.993c-0.012-0.005-0.023-0.011-0.036-0.016L30.223,247.969L449.557,85.646z M442.316,405.506
		l-178.528-67.76L491.995,81.501L442.316,405.506z"/>
	<path fill="white" d="M185.506,295.311c1.63,0,3.275-0.497,4.695-1.528l15.55-11.294c3.575-2.596,4.368-7.599,1.772-11.174
		c-2.597-3.575-7.6-4.368-11.174-1.772l-15.55,11.294c-3.575,2.596-4.368,7.599-1.772,11.174
		C180.592,294.167,183.032,295.311,185.506,295.311z"/>
</g>
<g>
</g>
<g>
</g>
<g>
</g>
<g>
</g>
<g>
</g>
<g>
</g>
<g>
</g>
<g>
</g>
<g>
</g>
<g>
</g>
<g>
</g>
<g>
</g>
<g>
</g>
<g>
</g>
<g>
</g>
</svg>
